<svg width="15" height="17" viewBox="0 0 15 17" fill="none" xmlns="http://www.w3.org/2000/svg">
    <path fill-rule="evenodd" clip-rule="evenodd" d="M6.46434 0.557222C6.19637 0.61231 5.84785 0.742358 5.62187 0.871532L5.45986 0.964147L5.32798 0.828536C5.0174 0.509227 4.63453 0.827255 4.88925 1.19297L4.98289 1.32745L4.77856 1.58574C4.66615 1.72778 4.52504 1.94198 4.465 2.06172L4.3558 2.27941L4.24356 2.22179C4.05439 2.12465 3.86376 2.16086 3.79468 2.30706C3.70626 2.49423 3.78616 2.6359 4.04648 2.75348C4.18177 2.8146 4.20808 2.83938 4.19473 2.89306C4.16508 3.01205 4.16339 3.45085 4.19032 4.03994L4.21692 4.6216L4.14172 4.641C4.10037 4.65169 4.00391 4.66062 3.92737 4.66084C3.74128 4.66144 3.6291 4.76461 3.6291 4.93519C3.6291 5.15048 3.78697 5.24768 4.0819 5.21403L4.23763 5.19622L4.25632 5.38964C4.26663 5.49603 4.28455 5.8035 4.29611 6.07294L4.31721 6.56282L4.08028 6.58532C3.5226 6.63832 3.53462 7.15245 4.09324 7.13998L4.33565 7.13454L4.35447 7.37433C4.36481 7.50619 4.38247 7.80588 4.39374 8.04029L4.41419 8.46653L4.25182 8.48805C3.7916 8.54908 3.81652 9.05046 4.27927 9.0404L4.43227 9.03709L4.45304 9.34109C4.47631 9.68121 4.66583 13.5038 4.66593 13.6345C4.66596 13.6804 4.70374 13.7613 4.74988 13.8141L4.83377 13.9103H7.08434H9.33493L9.4114 13.8365C9.49711 13.7539 9.51091 13.6608 9.54519 12.9338L9.56544 12.5042H9.86559C10.5482 12.5042 10.5598 11.9787 9.87784 11.9473L9.58252 11.9337L9.60219 11.6643C9.61301 11.5162 9.63171 11.1524 9.6437 10.8559L9.66554 10.3169H9.88921C10.221 10.3169 10.3365 10.2443 10.3365 10.0357C10.3365 9.82994 10.22 9.75448 9.90253 9.75448H9.69217L9.70766 9.54356C9.7282 9.26397 9.91523 5.45138 9.91523 5.31249V5.20425L10.1572 5.20616C10.6958 5.21047 10.7293 4.7129 10.194 4.65947C9.921 4.63222 9.94459 4.70259 9.98464 4.03491C10.0037 3.71776 10.0114 3.31727 10.0019 3.14491L9.98448 2.83154L10.1647 2.74055C10.3916 2.626 10.4602 2.50192 10.3882 2.33591C10.3143 2.16527 10.1252 2.11055 9.94763 2.20842C9.82622 2.27535 9.79417 2.2656 9.75445 2.14955C9.70954 2.01828 9.36831 1.51631 9.2546 1.41422L9.17052 1.33873L9.2512 1.23671C9.46726 0.963553 9.3803 0.692957 9.07646 0.692957C8.98301 0.692957 8.74873 0.875656 8.74873 0.948524C8.74873 0.963522 8.64197 0.919277 8.51148 0.850222C7.91138 0.532631 7.1287 0.420612 6.46434 0.557222ZM7.57206 2.22948C7.79736 2.43361 7.64863 3.25518 7.38633 3.25518C7.15478 3.25518 7.01166 2.59525 7.17652 2.28782C7.25396 2.14339 7.44579 2.11512 7.57206 2.22948ZM12.6922 3.11104C12.653 3.15204 12.5921 3.25749 12.557 3.34539C12.4946 3.50159 12.4902 3.50515 12.3604 3.50515C11.5372 3.50515 11.0493 4.14168 11.0493 5.21566C11.0493 5.89074 10.9977 6.00338 10.6648 6.05472C10.3994 6.09566 10.4069 6.0646 10.3393 7.39836C10.2759 8.65019 10.2797 8.7149 10.4189 8.76643C10.506 8.79865 11.5463 8.78821 11.7335 8.75321C11.9035 8.7214 11.9097 8.72278 11.9728 8.80643C12.1125 8.99147 12.1768 9.03581 12.3055 9.03581C12.543 9.03581 12.6659 8.8312 12.5505 8.62807L12.4861 8.51449L12.6274 8.44222C12.7051 8.40244 12.8676 8.28986 12.9884 8.19196L13.2082 8.01401L13.4146 8.13434C13.7448 8.32692 13.9656 8.26061 13.9656 7.9688C13.9656 7.83081 13.9225 7.77501 13.7283 7.66152L13.553 7.55906L13.6595 7.32096C13.7699 7.07414 13.8684 6.68278 13.8684 6.49052V6.37984H14.0804C14.346 6.37984 14.4516 6.30098 14.4516 6.10281C14.4516 5.91583 14.3164 5.8174 14.0595 5.8174H13.8669L13.8757 5.26468L13.8846 4.71193L14.0608 4.64366C14.2716 4.56198 14.3544 4.47302 14.3544 4.32832C14.3544 4.09565 14.1104 4.00369 13.8205 4.12706L13.6916 4.18189L13.5958 4.04228C13.543 3.96548 13.4114 3.83999 13.3034 3.76344C13.1953 3.68688 13.1017 3.61939 13.0954 3.61345C13.089 3.60755 13.109 3.53918 13.1397 3.46153C13.2669 3.14035 12.9224 2.87047 12.6922 3.11104ZM6.45624 3.94617C6.62004 4.1364 6.51907 5.0982 6.33052 5.14382C6.06618 5.20781 5.9945 5.06739 5.9945 4.48555V4.03153L6.09301 3.93654C6.20719 3.82646 6.35657 3.8304 6.45624 3.94617ZM7.95633 5.30043C8.2333 5.56749 7.98189 6.3166 7.6692 6.15602C7.38014 6.00754 7.47048 5.22372 7.77665 5.22372C7.83977 5.22372 7.9062 5.25206 7.95633 5.30043ZM1.00086 6.89541C0.705116 7.0504 0.858316 7.41098 1.21996 7.41098C1.37213 7.41098 1.40916 7.42414 1.51146 7.51453L1.62863 7.61809L1.47047 7.67586C1.06346 7.82456 0.728737 8.15765 0.614096 8.52805L0.572977 8.66085H0.372242C0.114349 8.66085 0 8.74593 0 8.93779C0 9.11958 0.136253 9.22329 0.375126 9.22329H0.550846V9.97321V10.7231H0.407529C0.207604 10.7231 0.0643842 10.8389 0.0658424 10.9993C0.0676893 11.2062 0.186931 11.2856 0.495697 11.2856H0.704046L0.758936 11.4241C0.827015 11.596 1.02516 11.8945 1.18325 12.0632L1.30262 12.1906L1.16974 12.3362C0.805078 12.7357 1.21698 13.0899 1.60789 12.713L1.78024 12.5468L1.9999 12.6482C2.846 13.0386 4.08248 12.9827 4.08303 12.554C4.08462 11.2815 3.97124 10.2036 3.83272 10.175C3.40617 10.0868 3.36988 10.0209 3.36988 9.33459C3.36988 8.36316 3.13704 7.94855 2.43749 7.67439L2.2596 7.60465L2.37684 7.4916C2.6903 7.18932 2.39236 6.78083 2.04108 7.03127L1.94663 7.09864L1.79258 7.00443C1.53482 6.84679 1.18542 6.79867 1.00086 6.89541ZM6.381 7.9254C6.6563 8.06266 6.55455 8.91082 6.2628 8.91082C6.04751 8.91082 5.9945 8.81183 5.9945 8.40991C5.9945 7.94992 6.11851 7.7945 6.381 7.9254ZM7.95633 9.73745C8.23829 10.0093 7.98539 10.8179 7.6692 10.6555C7.37722 10.5056 7.46847 9.66074 7.77665 9.66074C7.83977 9.66074 7.9062 9.68908 7.95633 9.73745ZM6.91944 11.7372C7.04182 11.8552 7.04182 12.5595 6.91944 12.6774C6.66453 12.9233 6.48054 12.7263 6.48054 12.2073C6.48054 11.7606 6.52798 11.6605 6.73977 11.6605C6.80289 11.6605 6.86931 11.6889 6.91944 11.7372ZM4.02669 14.4426C3.00794 14.6405 2.81615 15.9717 3.74303 16.4115L3.90453 16.4881L7.037 16.4964C10.1254 16.5045 10.172 16.5038 10.3469 16.4407C11.2347 16.1203 11.2649 14.9042 10.3945 14.5166L10.1907 14.4259L7.1772 14.4209C5.5198 14.4182 4.10205 14.428 4.02669 14.4426Z" fill="#25262E" />
</svg>